<svg width="16" height="16" viewBox="0 0 16 16" fill="none" xmlns="http://www.w3.org/2000/svg">
<g clip-path="url(#clip0_261_5695)">
<path d="M8.62432 12.4447L15.7444 5.32452C15.9092 5.15984 16 4.94 16 4.7056C16 4.47119 15.9092 4.25136 15.7444 4.08667L15.2202 3.56232C14.8786 3.22112 14.3234 3.22112 13.9823 3.56232L8.00332 9.54133L2.01768 3.55569C1.85286 3.391 1.63316 3.30008 1.39888 3.30008C1.16435 3.30008 0.944643 3.391 0.779701 3.55569L0.255608 4.08004C0.0907964 4.24485 9.02773e-07 4.46456 8.92527e-07 4.69896C8.82281e-07 4.93337 0.0907964 5.1532 0.255608 5.31788L7.38218 12.4447C7.54752 12.6098 7.76826 12.7005 8.00293 12.6999C8.2385 12.7005 8.45912 12.6098 8.62432 12.4447Z" fill="black"/>
</g>
<defs>
<clipPath id="clip0_261_5695">
<rect width="16" height="16" fill="white" transform="translate(16) rotate(90)"/>
</clipPath>
</defs>
</svg>
