<svg width="238" height="64" viewBox="0 0 238 64" fill="none" xmlns="http://www.w3.org/2000/svg">
<path d="M0.42 59.992L0.744 59.356C1.112 59.676 1.524 59.916 1.98 60.076C2.444 60.228 2.908 60.308 3.372 60.316C3.836 60.316 4.26 60.248 4.644 60.112C5.036 59.976 5.352 59.776 5.592 59.512C5.832 59.24 5.952 58.912 5.952 58.528C5.952 58.04 5.756 57.664 5.364 57.4C4.98 57.136 4.444 57.004 3.756 57.004H1.956V56.284H3.708C4.3 56.284 4.76 56.16 5.088 55.912C5.424 55.656 5.592 55.304 5.592 54.856C5.592 54.536 5.496 54.264 5.304 54.04C5.12 53.808 4.864 53.632 4.536 53.512C4.216 53.384 3.856 53.316 3.456 53.308C3.056 53.292 2.64 53.344 2.208 53.464C1.784 53.576 1.372 53.756 0.972 54.004L0.684 53.272C1.18 52.976 1.696 52.772 2.232 52.66C2.768 52.54 3.288 52.5 3.792 52.54C4.296 52.58 4.748 52.696 5.148 52.888C5.556 53.08 5.88 53.332 6.12 53.644C6.36 53.956 6.48 54.328 6.48 54.76C6.48 55.16 6.376 55.512 6.168 55.816C5.968 56.12 5.684 56.356 5.316 56.524C4.956 56.684 4.528 56.764 4.032 56.764L4.08 56.5C4.64 56.5 5.124 56.588 5.532 56.764C5.948 56.94 6.268 57.192 6.492 57.52C6.724 57.84 6.84 58.216 6.84 58.648C6.84 59.056 6.736 59.42 6.528 59.74C6.328 60.052 6.048 60.316 5.688 60.532C5.336 60.74 4.94 60.892 4.5 60.988C4.06 61.076 3.6 61.1 3.12 61.06C2.64 61.02 2.168 60.916 1.704 60.748C1.24 60.572 0.812 60.32 0.42 59.992ZM12.7529 61V59.608L12.7169 59.38V57.052C12.7169 56.516 12.5649 56.104 12.2609 55.816C11.9649 55.528 11.5209 55.384 10.9289 55.384C10.5209 55.384 10.1329 55.452 9.76491 55.588C9.39691 55.724 9.08491 55.904 8.82891 56.128L8.44491 55.492C8.76491 55.22 9.14891 55.012 9.59691 54.868C10.0449 54.716 10.5169 54.64 11.0129 54.64C11.8289 54.64 12.4569 54.844 12.8969 55.252C13.3449 55.652 13.5689 56.264 13.5689 57.088V61H12.7529ZM10.5809 61.06C10.1089 61.06 9.69691 60.984 9.34491 60.832C9.00091 60.672 8.73691 60.456 8.55291 60.184C8.36891 59.904 8.27691 59.584 8.27691 59.224C8.27691 58.896 8.35291 58.6 8.50491 58.336C8.66491 58.064 8.92091 57.848 9.27291 57.688C9.63291 57.52 10.1129 57.436 10.7129 57.436H12.8849V58.072H10.7369C10.1289 58.072 9.70491 58.18 9.46491 58.396C9.23291 58.612 9.11691 58.88 9.11691 59.2C9.11691 59.56 9.25691 59.848 9.53691 60.064C9.81691 60.28 10.2089 60.388 10.7129 60.388C11.1929 60.388 11.6049 60.28 11.9489 60.064C12.3009 59.84 12.5569 59.52 12.7169 59.104L12.9089 59.692C12.7489 60.108 12.4689 60.44 12.0689 60.688C11.6769 60.936 11.1809 61.06 10.5809 61.06ZM14.805 61L17.469 57.544L17.457 57.964L14.925 54.7H15.885L17.961 57.4L17.601 57.388L19.677 54.7H20.613L18.057 58L18.069 57.544L20.757 61H19.785L17.589 58.12L17.925 58.168L15.765 61H14.805ZM22.1534 61V54.7H23.0054V59.704L27.2174 54.7H27.9734V61H27.1214V55.984L22.9214 61H22.1534ZM33.0551 61.06C32.4311 61.06 31.8711 60.924 31.3751 60.652C30.8871 60.372 30.5031 59.992 30.2231 59.512C29.9431 59.024 29.8031 58.468 29.8031 57.844C29.8031 57.212 29.9431 56.656 30.2231 56.176C30.5031 55.696 30.8871 55.32 31.3751 55.048C31.8711 54.776 32.4311 54.64 33.0551 54.64C33.5911 54.64 34.0751 54.744 34.5071 54.952C34.9391 55.16 35.2791 55.472 35.5271 55.888L34.8911 56.32C34.6751 56 34.4071 55.764 34.0871 55.612C33.7671 55.46 33.4191 55.384 33.0431 55.384C32.5951 55.384 32.1911 55.488 31.8311 55.696C31.4711 55.896 31.1871 56.18 30.9791 56.548C30.7711 56.916 30.6671 57.348 30.6671 57.844C30.6671 58.34 30.7711 58.772 30.9791 59.14C31.1871 59.508 31.4711 59.796 31.8311 60.004C32.1911 60.204 32.5951 60.304 33.0431 60.304C33.4191 60.304 33.7671 60.228 34.0871 60.076C34.4071 59.924 34.6751 59.692 34.8911 59.38L35.5271 59.812C35.2791 60.22 34.9391 60.532 34.5071 60.748C34.0751 60.956 33.5911 61.06 33.0551 61.06ZM38.2597 61V55.216L38.4757 55.444H35.8717V54.7H41.4997V55.444H38.8957L39.1117 55.216V61H38.2597ZM45.8722 61V54.7H48.6562C49.3682 54.7 49.9282 54.836 50.3362 55.108C50.7522 55.38 50.9602 55.78 50.9602 56.308C50.9602 56.82 50.7642 57.216 50.3722 57.496C49.9802 57.768 49.4642 57.904 48.8242 57.904L48.9922 57.652C49.7442 57.652 50.2962 57.792 50.6482 58.072C51.0002 58.352 51.1762 58.756 51.1762 59.284C51.1762 59.828 50.9762 60.252 50.5762 60.556C50.1842 60.852 49.5722 61 48.7402 61H45.8722ZM46.7002 60.328H48.7042C49.2402 60.328 49.6442 60.244 49.9162 60.076C50.1962 59.9 50.3362 59.62 50.3362 59.236C50.3362 58.852 50.2122 58.572 49.9642 58.396C49.7162 58.22 49.3242 58.132 48.7882 58.132H46.7002V60.328ZM46.7002 57.496H48.5962C49.0842 57.496 49.4562 57.404 49.7122 57.22C49.9762 57.036 50.1082 56.768 50.1082 56.416C50.1082 56.064 49.9762 55.8 49.7122 55.624C49.4562 55.448 49.0842 55.36 48.5962 55.36H46.7002V57.496ZM57.0849 61V59.608L57.0489 59.38V57.052C57.0489 56.516 56.8969 56.104 56.5929 55.816C56.2969 55.528 55.8529 55.384 55.2609 55.384C54.8529 55.384 54.4649 55.452 54.0969 55.588C53.7289 55.724 53.4169 55.904 53.1609 56.128L52.7769 55.492C53.0969 55.22 53.4809 55.012 53.9289 54.868C54.3769 54.716 54.8489 54.64 55.3449 54.64C56.1609 54.64 56.7889 54.844 57.2289 55.252C57.6769 55.652 57.9009 56.264 57.9009 57.088V61H57.0849ZM54.9129 61.06C54.4409 61.06 54.0289 60.984 53.6769 60.832C53.3329 60.672 53.0689 60.456 52.8849 60.184C52.7009 59.904 52.6089 59.584 52.6089 59.224C52.6089 58.896 52.6849 58.6 52.8369 58.336C52.9969 58.064 53.2529 57.848 53.6049 57.688C53.9649 57.52 54.4449 57.436 55.0449 57.436H57.2169V58.072H55.0689C54.4609 58.072 54.0369 58.18 53.7969 58.396C53.5649 58.612 53.4489 58.88 53.4489 59.2C53.4489 59.56 53.5889 59.848 53.8689 60.064C54.1489 60.28 54.5409 60.388 55.0449 60.388C55.5249 60.388 55.9369 60.28 56.2809 60.064C56.6329 59.84 56.8889 59.52 57.0489 59.104L57.2409 59.692C57.0809 60.108 56.8009 60.44 56.4009 60.688C56.0089 60.936 55.5129 61.06 54.9129 61.06ZM64.309 60.256L64.117 60.484V54.7H64.969V60.484L64.741 60.256H68.257L68.029 60.484V54.7H68.881V61H60.169V54.7H61.021V60.484L60.805 60.256H64.309ZM71.3018 61V54.7H72.1538V59.704L76.3658 54.7H77.1218V61H76.2698V55.984L72.0698 61H71.3018ZM78.5316 61L81.1956 57.544L81.1836 57.964L78.6516 54.7H79.6116L81.6876 57.4L81.3276 57.388L83.4036 54.7H84.3396L81.7836 58L81.7956 57.544L84.4836 61H83.5116L81.3156 58.12L81.6516 58.168L79.4916 61H78.5316ZM89.0206 61V54.7H94.6846V61H93.8326V55.216L94.0486 55.444H89.6566L89.8726 55.216V61H89.0206ZM100.359 61.06C99.8145 61.06 99.3225 60.936 98.8825 60.688C98.4425 60.432 98.0905 60.068 97.8265 59.596C97.5705 59.116 97.4425 58.532 97.4425 57.844C97.4425 57.156 97.5705 56.576 97.8265 56.104C98.0825 55.624 98.4305 55.26 98.8705 55.012C99.3105 54.764 99.8065 54.64 100.359 54.64C100.959 54.64 101.495 54.776 101.967 55.048C102.447 55.312 102.823 55.688 103.095 56.176C103.367 56.656 103.503 57.212 103.503 57.844C103.503 58.484 103.367 59.044 103.095 59.524C102.823 60.004 102.447 60.38 101.967 60.652C101.495 60.924 100.959 61.06 100.359 61.06ZM97.1065 63.328V54.7H97.9225V56.596L97.8385 57.856L97.9585 59.128V63.328H97.1065ZM100.299 60.304C100.747 60.304 101.147 60.204 101.499 60.004C101.851 59.796 102.131 59.508 102.339 59.14C102.547 58.764 102.651 58.332 102.651 57.844C102.651 57.356 102.547 56.928 102.339 56.56C102.131 56.192 101.851 55.904 101.499 55.696C101.147 55.488 100.747 55.384 100.299 55.384C99.8505 55.384 99.4465 55.488 99.0865 55.696C98.7345 55.904 98.4545 56.192 98.2465 56.56C98.0465 56.928 97.9465 57.356 97.9465 57.844C97.9465 58.332 98.0465 58.764 98.2465 59.14C98.4545 59.508 98.7345 59.796 99.0865 60.004C99.4465 60.204 99.8505 60.304 100.299 60.304ZM109.21 61V59.608L109.174 59.38V57.052C109.174 56.516 109.022 56.104 108.718 55.816C108.422 55.528 107.978 55.384 107.386 55.384C106.978 55.384 106.59 55.452 106.222 55.588C105.854 55.724 105.542 55.904 105.286 56.128L104.902 55.492C105.222 55.22 105.606 55.012 106.054 54.868C106.502 54.716 106.974 54.64 107.47 54.64C108.286 54.64 108.914 54.844 109.354 55.252C109.802 55.652 110.026 56.264 110.026 57.088V61H109.21ZM107.038 61.06C106.566 61.06 106.154 60.984 105.802 60.832C105.458 60.672 105.194 60.456 105.01 60.184C104.826 59.904 104.734 59.584 104.734 59.224C104.734 58.896 104.81 58.6 104.962 58.336C105.122 58.064 105.378 57.848 105.73 57.688C106.09 57.52 106.57 57.436 107.17 57.436H109.342V58.072H107.194C106.586 58.072 106.162 58.18 105.922 58.396C105.69 58.612 105.574 58.88 105.574 59.2C105.574 59.56 105.714 59.848 105.994 60.064C106.274 60.28 106.666 60.388 107.17 60.388C107.65 60.388 108.062 60.28 108.406 60.064C108.758 59.84 109.014 59.52 109.174 59.104L109.366 59.692C109.206 60.108 108.926 60.44 108.526 60.688C108.134 60.936 107.638 61.06 107.038 61.06ZM112.294 61V54.7H115.078C115.79 54.7 116.35 54.836 116.758 55.108C117.174 55.38 117.382 55.78 117.382 56.308C117.382 56.82 117.186 57.216 116.794 57.496C116.402 57.768 115.886 57.904 115.246 57.904L115.414 57.652C116.166 57.652 116.718 57.792 117.07 58.072C117.422 58.352 117.598 58.756 117.598 59.284C117.598 59.828 117.398 60.252 116.998 60.556C116.606 60.852 115.994 61 115.162 61H112.294ZM113.122 60.328H115.126C115.662 60.328 116.066 60.244 116.338 60.076C116.618 59.9 116.758 59.62 116.758 59.236C116.758 58.852 116.634 58.572 116.386 58.396C116.138 58.22 115.746 58.132 115.21 58.132H113.122V60.328ZM113.122 57.496H115.018C115.506 57.496 115.878 57.404 116.134 57.22C116.398 57.036 116.53 56.768 116.53 56.416C116.53 56.064 116.398 55.8 116.134 55.624C115.878 55.448 115.506 55.36 115.018 55.36H113.122V57.496ZM122.735 61V54.7H128.399V61H127.547V55.216L127.763 55.444H123.371L123.587 55.216V61H122.735ZM133.413 61.06C132.805 61.06 132.257 60.924 131.769 60.652C131.289 60.372 130.909 59.992 130.629 59.512C130.349 59.024 130.209 58.468 130.209 57.844C130.209 57.212 130.349 56.656 130.629 56.176C130.909 55.696 131.289 55.32 131.769 55.048C132.249 54.776 132.797 54.64 133.413 54.64C134.037 54.64 134.589 54.776 135.069 55.048C135.557 55.32 135.937 55.696 136.209 56.176C136.489 56.656 136.629 57.212 136.629 57.844C136.629 58.468 136.489 59.024 136.209 59.512C135.937 59.992 135.557 60.372 135.069 60.652C134.581 60.924 134.029 61.06 133.413 61.06ZM133.413 60.304C133.869 60.304 134.273 60.204 134.625 60.004C134.977 59.796 135.253 59.508 135.453 59.14C135.661 58.764 135.765 58.332 135.765 57.844C135.765 57.348 135.661 56.916 135.453 56.548C135.253 56.18 134.977 55.896 134.625 55.696C134.273 55.488 133.873 55.384 133.425 55.384C132.977 55.384 132.577 55.488 132.225 55.696C131.873 55.896 131.593 56.18 131.385 56.548C131.177 56.916 131.073 57.348 131.073 57.844C131.073 58.332 131.177 58.764 131.385 59.14C131.593 59.508 131.873 59.796 132.225 60.004C132.577 60.204 132.973 60.304 133.413 60.304ZM138.45 61V54.7H139.302V57.484H143.274V54.7H144.126V61H143.274V58.216H139.302V61H138.45ZM150.46 61V59.608L150.424 59.38V57.052C150.424 56.516 150.272 56.104 149.968 55.816C149.672 55.528 149.228 55.384 148.636 55.384C148.228 55.384 147.84 55.452 147.472 55.588C147.104 55.724 146.792 55.904 146.536 56.128L146.152 55.492C146.472 55.22 146.856 55.012 147.304 54.868C147.752 54.716 148.224 54.64 148.72 54.64C149.536 54.64 150.164 54.844 150.604 55.252C151.052 55.652 151.276 56.264 151.276 57.088V61H150.46ZM148.288 61.06C147.816 61.06 147.404 60.984 147.052 60.832C146.708 60.672 146.444 60.456 146.26 60.184C146.076 59.904 145.984 59.584 145.984 59.224C145.984 58.896 146.06 58.6 146.212 58.336C146.372 58.064 146.628 57.848 146.98 57.688C147.34 57.52 147.82 57.436 148.42 57.436H150.592V58.072H148.444C147.836 58.072 147.412 58.18 147.172 58.396C146.94 58.612 146.824 58.88 146.824 59.2C146.824 59.56 146.964 59.848 147.244 60.064C147.524 60.28 147.916 60.388 148.42 60.388C148.9 60.388 149.312 60.28 149.656 60.064C150.008 59.84 150.264 59.52 150.424 59.104L150.616 59.692C150.456 60.108 150.176 60.44 149.776 60.688C149.384 60.936 148.888 61.06 148.288 61.06ZM157.864 60.592V55.444H154.828L154.756 56.848C154.74 57.272 154.712 57.688 154.672 58.096C154.64 58.504 154.58 58.88 154.492 59.224C154.412 59.56 154.296 59.836 154.144 60.052C153.992 60.26 153.796 60.38 153.556 60.412L152.704 60.256C152.952 60.264 153.156 60.176 153.316 59.992C153.476 59.8 153.6 59.54 153.688 59.212C153.776 58.884 153.84 58.512 153.88 58.096C153.92 57.672 153.952 57.24 153.976 56.8L154.06 54.7H158.716V60.592H157.864ZM152.44 62.524V60.256H159.7V62.524H158.896V61H153.244V62.524H152.44ZM165.377 61V52.96L165.761 53.368H163.397V52.6H166.241V61H165.377ZM169.725 61L173.349 52.984L173.613 53.368H168.417L168.861 52.948V54.94H168.009V52.6H174.177V53.212L170.661 61H169.725ZM182.296 61.06C181.752 61.06 181.26 60.936 180.82 60.688C180.38 60.432 180.028 60.068 179.764 59.596C179.508 59.116 179.38 58.532 179.38 57.844C179.38 57.156 179.508 56.576 179.764 56.104C180.02 55.624 180.368 55.26 180.808 55.012C181.248 54.764 181.744 54.64 182.296 54.64C182.896 54.64 183.432 54.776 183.904 55.048C184.384 55.312 184.76 55.688 185.032 56.176C185.304 56.656 185.44 57.212 185.44 57.844C185.44 58.484 185.304 59.044 185.032 59.524C184.76 60.004 184.384 60.38 183.904 60.652C183.432 60.924 182.896 61.06 182.296 61.06ZM179.044 63.328V54.7H179.86V56.596L179.776 57.856L179.896 59.128V63.328H179.044ZM182.236 60.304C182.684 60.304 183.084 60.204 183.436 60.004C183.788 59.796 184.068 59.508 184.276 59.14C184.484 58.764 184.588 58.332 184.588 57.844C184.588 57.356 184.484 56.928 184.276 56.56C184.068 56.192 183.788 55.904 183.436 55.696C183.084 55.488 182.684 55.384 182.236 55.384C181.788 55.384 181.384 55.488 181.024 55.696C180.672 55.904 180.392 56.192 180.184 56.56C179.984 56.928 179.884 57.356 179.884 57.844C179.884 58.332 179.984 58.764 180.184 59.14C180.392 59.508 180.672 59.796 181.024 60.004C181.384 60.204 181.788 60.304 182.236 60.304ZM189.863 61.06C189.255 61.06 188.707 60.924 188.219 60.652C187.739 60.372 187.359 59.992 187.079 59.512C186.799 59.024 186.659 58.468 186.659 57.844C186.659 57.212 186.799 56.656 187.079 56.176C187.359 55.696 187.739 55.32 188.219 55.048C188.699 54.776 189.247 54.64 189.863 54.64C190.487 54.64 191.039 54.776 191.519 55.048C192.007 55.32 192.387 55.696 192.659 56.176C192.939 56.656 193.079 57.212 193.079 57.844C193.079 58.468 192.939 59.024 192.659 59.512C192.387 59.992 192.007 60.372 191.519 60.652C191.031 60.924 190.479 61.06 189.863 61.06ZM189.863 60.304C190.319 60.304 190.723 60.204 191.075 60.004C191.427 59.796 191.703 59.508 191.903 59.14C192.111 58.764 192.215 58.332 192.215 57.844C192.215 57.348 192.111 56.916 191.903 56.548C191.703 56.18 191.427 55.896 191.075 55.696C190.723 55.488 190.323 55.384 189.875 55.384C189.427 55.384 189.027 55.488 188.675 55.696C188.323 55.896 188.043 56.18 187.835 56.548C187.627 56.916 187.523 57.348 187.523 57.844C187.523 58.332 187.627 58.764 187.835 59.14C188.043 59.508 188.323 59.796 188.675 60.004C189.027 60.204 189.423 60.304 189.863 60.304ZM199.52 61L196.928 57.88L197.636 57.46L200.528 61H199.52ZM194.9 61V54.7H195.752V61H194.9ZM195.488 58.192V57.46H197.516V58.192H195.488ZM197.708 57.94L196.916 57.82L199.424 54.7H200.348L197.708 57.94ZM201.872 61V54.7H202.724V61H201.872ZM202.304 53.308C202.128 53.308 201.98 53.248 201.86 53.128C201.74 53.008 201.68 52.864 201.68 52.696C201.68 52.528 201.74 52.388 201.86 52.276C201.98 52.156 202.128 52.096 202.304 52.096C202.48 52.096 202.628 52.152 202.748 52.264C202.868 52.376 202.928 52.516 202.928 52.684C202.928 52.86 202.868 53.008 202.748 53.128C202.636 53.248 202.488 53.308 202.304 53.308ZM205.153 61V54.7H207.937C208.649 54.7 209.209 54.836 209.617 55.108C210.033 55.38 210.241 55.78 210.241 56.308C210.241 56.82 210.045 57.216 209.653 57.496C209.261 57.768 208.745 57.904 208.105 57.904L208.273 57.652C209.025 57.652 209.577 57.792 209.929 58.072C210.281 58.352 210.457 58.756 210.457 59.284C210.457 59.828 210.257 60.252 209.857 60.556C209.465 60.852 208.853 61 208.021 61H205.153ZM205.981 60.328H207.985C208.521 60.328 208.925 60.244 209.197 60.076C209.477 59.9 209.617 59.62 209.617 59.236C209.617 58.852 209.493 58.572 209.245 58.396C208.997 58.22 208.605 58.132 208.069 58.132H205.981V60.328ZM205.981 57.496H207.877C208.365 57.496 208.737 57.404 208.993 57.22C209.257 57.036 209.389 56.768 209.389 56.416C209.389 56.064 209.257 55.8 208.993 55.624C208.737 55.448 208.365 55.36 207.877 55.36H205.981V57.496Z" fill="white"/>
<path d="M14.6094 40.1562C10.2865 40.1562 6.96615 38.9909 4.64844 36.6602C2.34375 34.3294 1.19141 30.7682 1.19141 25.9766C1.19141 21.1719 2.39583 17.6172 4.80469 15.3125C7.22656 12.9948 10.8529 11.8359 15.6836 11.8359H20.0391C22.9167 11.8359 25.5078 12.526 27.8125 13.9062C30.1302 15.2734 31.2891 16.9857 31.2891 19.043C31.2891 19.8112 31.0612 20.3646 30.6055 20.7031C30.1497 21.0286 29.707 21.1914 29.2773 21.1914H26.9531C25.8333 21.1914 24.9414 20.5534 24.2773 19.2773C23.6133 18.0013 21.9727 17.3633 19.3555 17.3633H15.8789C13.0273 17.3633 11.0938 17.9753 10.0781 19.1992C9.0625 20.4232 8.55469 22.6758 8.55469 25.957C8.55469 29.2383 9.01042 31.5104 9.92188 32.7734C10.8333 34.0234 12.4609 34.6484 14.8047 34.6484H18.8086C20.9049 34.6484 22.4023 34.2513 23.3008 33.457C24.1992 32.6497 24.6615 31.4974 24.6875 30H20.2734C19.7656 30 19.3294 29.8242 18.9648 29.4727C18.6133 29.1081 18.4375 28.6719 18.4375 28.1641V26.6406C18.4375 26.1328 18.6133 25.7031 18.9648 25.3516C19.3294 24.987 19.7656 24.8047 20.2734 24.8047H30.0781C30.5859 24.8047 31.0156 24.987 31.3672 25.3516C31.7318 25.7031 31.9141 26.1328 31.9141 26.6406V28.8086C31.9141 32.4544 30.8203 35.2604 28.6328 37.2266C26.4453 39.1797 23.2357 40.1562 19.0039 40.1562H14.6094ZM61.7578 37.1094C59.1016 39.4401 55.1953 40.6055 50.0391 40.6055C44.8958 40.6055 40.9896 39.4401 38.3203 37.1094C35.651 34.7656 34.3164 31.0612 34.3164 25.9961C34.3164 20.931 35.651 17.2331 38.3203 14.9023C40.9896 12.5716 44.8958 11.4062 50.0391 11.4062C55.1953 11.4062 59.1016 12.5716 61.7578 14.9023C64.4271 17.2331 65.7617 20.931 65.7617 25.9961C65.7617 31.0612 64.4271 34.7656 61.7578 37.1094ZM56.4258 19.0234C55.1107 17.4609 52.9818 16.6797 50.0391 16.6797C47.1094 16.6797 44.9805 17.4609 43.6523 19.0234C42.3372 20.5859 41.6797 22.9167 41.6797 26.0156C41.6797 29.1016 42.3372 31.4258 43.6523 32.9883C44.9805 34.5378 47.1094 35.3125 50.0391 35.3125C52.9818 35.3125 55.1107 34.5378 56.4258 32.9883C57.7409 31.4258 58.3984 29.1016 58.3984 26.0156C58.3984 22.9167 57.7409 20.5859 56.4258 19.0234ZM66.9336 13.6328C66.8555 13.4766 66.8164 13.3073 66.8164 13.125C66.8164 12.9297 66.9336 12.6953 67.168 12.4219C67.4154 12.1354 67.7604 11.9922 68.2031 11.9922H72.4805C73.4961 11.9922 74.2708 12.6107 74.8047 13.8477L82.3633 30.6836L89.9219 13.8477C90.4557 12.6237 91.2305 12.0052 92.2461 11.9922H96.5234C96.9792 11.9922 97.3242 12.1354 97.5586 12.4219C97.793 12.6953 97.9102 12.9297 97.9102 13.125C97.9102 13.3073 97.8776 13.4766 97.8125 13.6328L86.5625 38.0078C85.9505 39.3359 85.0195 40 83.7695 40H80.957C79.707 40 78.776 39.3359 78.1641 38.0078L66.9336 13.6328ZM126.367 37.1094C123.711 39.4401 119.805 40.6055 114.648 40.6055C109.505 40.6055 105.599 39.4401 102.93 37.1094C100.26 34.7656 98.9258 31.0612 98.9258 25.9961C98.9258 20.931 100.26 17.2331 102.93 14.9023C105.599 12.5716 109.505 11.4062 114.648 11.4062C119.805 11.4062 123.711 12.5716 126.367 14.9023C129.036 17.2331 130.371 20.931 130.371 25.9961C130.371 31.0612 129.036 34.7656 126.367 37.1094ZM121.035 19.0234C119.72 17.4609 117.591 16.6797 114.648 16.6797C111.719 16.6797 109.59 17.4609 108.262 19.0234C106.947 20.5859 106.289 22.9167 106.289 26.0156C106.289 29.1016 106.947 31.4258 108.262 32.9883C109.59 34.5378 111.719 35.3125 114.648 35.3125C117.591 35.3125 119.72 34.5378 121.035 32.9883C122.35 31.4258 123.008 29.1016 123.008 26.0156C123.008 22.9167 122.35 20.5859 121.035 19.0234ZM163.477 39.1602C163.477 39.7201 163.145 40 162.48 40H157.793C157.298 40 156.751 39.8242 156.152 39.4727C155.566 39.1081 155.117 38.6719 154.805 38.1641L151.484 32.9688C150.117 30.8333 148.464 29.7656 146.523 29.7656H141.758V38.1641C141.758 38.6719 141.576 39.1081 141.211 39.4727C140.859 39.8242 140.43 40 139.922 40H136.25C135.742 40 135.306 39.8242 134.941 39.4727C134.577 39.1081 134.395 38.6719 134.395 38.1641V13.8477C134.395 13.3398 134.57 12.9036 134.922 12.5391C135.273 12.1745 135.703 11.9922 136.211 11.9922H152.324C155.306 11.9922 157.747 12.793 159.648 14.3945C161.562 15.9961 162.52 18.1576 162.52 20.8789C162.52 24.668 160.065 27.0443 155.156 28.0078C155.938 28.2943 156.66 28.7891 157.324 29.4922C157.988 30.1823 158.75 31.1914 159.609 32.5195L163.164 38.1641C163.372 38.5286 163.477 38.8607 163.477 39.1602ZM141.758 24.2383H150.078C151.419 24.2383 152.598 23.9714 153.613 23.4375C154.642 22.9036 155.156 22.0508 155.156 20.8789C155.156 19.707 154.642 18.8542 153.613 18.3203C152.598 17.7865 151.419 17.5195 150.078 17.5195H141.758V24.2383ZM192.578 37.1094C189.922 39.4401 186.016 40.6055 180.859 40.6055C175.716 40.6055 171.81 39.4401 169.141 37.1094C166.471 34.7656 165.137 31.0612 165.137 25.9961C165.137 20.931 166.471 17.2331 169.141 14.9023C171.81 12.5716 175.716 11.4062 180.859 11.4062C186.016 11.4062 189.922 12.5716 192.578 14.9023C195.247 17.2331 196.582 20.931 196.582 25.9961C196.582 31.0612 195.247 34.7656 192.578 37.1094ZM187.246 19.0234C185.931 17.4609 183.802 16.6797 180.859 16.6797C177.93 16.6797 175.801 17.4609 174.473 19.0234C173.158 20.5859 172.5 22.9167 172.5 26.0156C172.5 29.1016 173.158 31.4258 174.473 32.9883C175.801 34.5378 177.93 35.3125 180.859 35.3125C183.802 35.3125 185.931 34.5378 187.246 32.9883C188.561 31.4258 189.219 29.1016 189.219 26.0156C189.219 22.9167 188.561 20.5859 187.246 19.0234ZM197.754 13.6328C197.676 13.4766 197.637 13.3073 197.637 13.125C197.637 12.9297 197.754 12.6953 197.988 12.4219C198.236 12.1354 198.581 11.9922 199.023 11.9922H203.301C204.316 11.9922 205.091 12.6107 205.625 13.8477L213.184 30.6836L220.742 13.8477C221.276 12.6237 222.051 12.0052 223.066 11.9922H227.344C227.799 11.9922 228.145 12.1354 228.379 12.4219C228.613 12.6953 228.73 12.9297 228.73 13.125C228.73 13.3073 228.698 13.4766 228.633 13.6328L217.383 38.0078C216.771 39.3359 215.84 40 214.59 40H211.777C210.527 40 209.596 39.3359 208.984 38.0078L197.754 13.6328Z" fill="white"/>
<path d="M14.6094 40.1562C10.2865 40.1562 6.96615 38.9909 4.64844 36.6602C2.34375 34.3294 1.19141 30.7682 1.19141 25.9766C1.19141 21.1719 2.39583 17.6172 4.80469 15.3125C7.22656 12.9948 10.8529 11.8359 15.6836 11.8359H20.0391C22.9167 11.8359 25.5078 12.526 27.8125 13.9062C30.1302 15.2734 31.2891 16.9857 31.2891 19.043C31.2891 19.8112 31.0612 20.3646 30.6055 20.7031C30.1497 21.0286 29.707 21.1914 29.2773 21.1914H26.9531C25.8333 21.1914 24.9414 20.5534 24.2773 19.2773C23.6133 18.0013 21.9727 17.3633 19.3555 17.3633H15.8789C13.0273 17.3633 11.0938 17.9753 10.0781 19.1992C9.0625 20.4232 8.55469 22.6758 8.55469 25.957C8.55469 29.2383 9.01042 31.5104 9.92188 32.7734C10.8333 34.0234 12.4609 34.6484 14.8047 34.6484H18.8086C20.9049 34.6484 22.4023 34.2513 23.3008 33.457C24.1992 32.6497 24.6615 31.4974 24.6875 30H20.2734C19.7656 30 19.3294 29.8242 18.9648 29.4727C18.6133 29.1081 18.4375 28.6719 18.4375 28.1641V26.6406C18.4375 26.1328 18.6133 25.7031 18.9648 25.3516C19.3294 24.987 19.7656 24.8047 20.2734 24.8047H30.0781C30.5859 24.8047 31.0156 24.987 31.3672 25.3516C31.7318 25.7031 31.9141 26.1328 31.9141 26.6406V28.8086C31.9141 32.4544 30.8203 35.2604 28.6328 37.2266C26.4453 39.1797 23.2357 40.1562 19.0039 40.1562H14.6094ZM61.7578 37.1094C59.1016 39.4401 55.1953 40.6055 50.0391 40.6055C44.8958 40.6055 40.9896 39.4401 38.3203 37.1094C35.651 34.7656 34.3164 31.0612 34.3164 25.9961C34.3164 20.931 35.651 17.2331 38.3203 14.9023C40.9896 12.5716 44.8958 11.4062 50.0391 11.4062C55.1953 11.4062 59.1016 12.5716 61.7578 14.9023C64.4271 17.2331 65.7617 20.931 65.7617 25.9961C65.7617 31.0612 64.4271 34.7656 61.7578 37.1094ZM56.4258 19.0234C55.1107 17.4609 52.9818 16.6797 50.0391 16.6797C47.1094 16.6797 44.9805 17.4609 43.6523 19.0234C42.3372 20.5859 41.6797 22.9167 41.6797 26.0156C41.6797 29.1016 42.3372 31.4258 43.6523 32.9883C44.9805 34.5378 47.1094 35.3125 50.0391 35.3125C52.9818 35.3125 55.1107 34.5378 56.4258 32.9883C57.7409 31.4258 58.3984 29.1016 58.3984 26.0156C58.3984 22.9167 57.7409 20.5859 56.4258 19.0234ZM66.9336 13.6328C66.8555 13.4766 66.8164 13.3073 66.8164 13.125C66.8164 12.9297 66.9336 12.6953 67.168 12.4219C67.4154 12.1354 67.7604 11.9922 68.2031 11.9922H72.4805C73.4961 11.9922 74.2708 12.6107 74.8047 13.8477L82.3633 30.6836L89.9219 13.8477C90.4557 12.6237 91.2305 12.0052 92.2461 11.9922H96.5234C96.9792 11.9922 97.3242 12.1354 97.5586 12.4219C97.793 12.6953 97.9102 12.9297 97.9102 13.125C97.9102 13.3073 97.8776 13.4766 97.8125 13.6328L86.5625 38.0078C85.9505 39.3359 85.0195 40 83.7695 40H80.957C79.707 40 78.776 39.3359 78.1641 38.0078L66.9336 13.6328ZM126.367 37.1094C123.711 39.4401 119.805 40.6055 114.648 40.6055C109.505 40.6055 105.599 39.4401 102.93 37.1094C100.26 34.7656 98.9258 31.0612 98.9258 25.9961C98.9258 20.931 100.26 17.2331 102.93 14.9023C105.599 12.5716 109.505 11.4062 114.648 11.4062C119.805 11.4062 123.711 12.5716 126.367 14.9023C129.036 17.2331 130.371 20.931 130.371 25.9961C130.371 31.0612 129.036 34.7656 126.367 37.1094ZM121.035 19.0234C119.72 17.4609 117.591 16.6797 114.648 16.6797C111.719 16.6797 109.59 17.4609 108.262 19.0234C106.947 20.5859 106.289 22.9167 106.289 26.0156C106.289 29.1016 106.947 31.4258 108.262 32.9883C109.59 34.5378 111.719 35.3125 114.648 35.3125C117.591 35.3125 119.72 34.5378 121.035 32.9883C122.35 31.4258 123.008 29.1016 123.008 26.0156C123.008 22.9167 122.35 20.5859 121.035 19.0234ZM163.477 39.1602C163.477 39.7201 163.145 40 162.48 40H157.793C157.298 40 156.751 39.8242 156.152 39.4727C155.566 39.1081 155.117 38.6719 154.805 38.1641L151.484 32.9688C150.117 30.8333 148.464 29.7656 146.523 29.7656H141.758V38.1641C141.758 38.6719 141.576 39.1081 141.211 39.4727C140.859 39.8242 140.43 40 139.922 40H136.25C135.742 40 135.306 39.8242 134.941 39.4727C134.577 39.1081 134.395 38.6719 134.395 38.1641V13.8477C134.395 13.3398 134.57 12.9036 134.922 12.5391C135.273 12.1745 135.703 11.9922 136.211 11.9922H152.324C155.306 11.9922 157.747 12.793 159.648 14.3945C161.562 15.9961 162.52 18.1576 162.52 20.8789C162.52 24.668 160.065 27.0443 155.156 28.0078C155.938 28.2943 156.66 28.7891 157.324 29.4922C157.988 30.1823 158.75 31.1914 159.609 32.5195L163.164 38.1641C163.372 38.5286 163.477 38.8607 163.477 39.1602ZM141.758 24.2383H150.078C151.419 24.2383 152.598 23.9714 153.613 23.4375C154.642 22.9036 155.156 22.0508 155.156 20.8789C155.156 19.707 154.642 18.8542 153.613 18.3203C152.598 17.7865 151.419 17.5195 150.078 17.5195H141.758V24.2383ZM192.578 37.1094C189.922 39.4401 186.016 40.6055 180.859 40.6055C175.716 40.6055 171.81 39.4401 169.141 37.1094C166.471 34.7656 165.137 31.0612 165.137 25.9961C165.137 20.931 166.471 17.2331 169.141 14.9023C171.81 12.5716 175.716 11.4062 180.859 11.4062C186.016 11.4062 189.922 12.5716 192.578 14.9023C195.247 17.2331 196.582 20.931 196.582 25.9961C196.582 31.0612 195.247 34.7656 192.578 37.1094ZM187.246 19.0234C185.931 17.4609 183.802 16.6797 180.859 16.6797C177.93 16.6797 175.801 17.4609 174.473 19.0234C173.158 20.5859 172.5 22.9167 172.5 26.0156C172.5 29.1016 173.158 31.4258 174.473 32.9883C175.801 34.5378 177.93 35.3125 180.859 35.3125C183.802 35.3125 185.931 34.5378 187.246 32.9883C188.561 31.4258 189.219 29.1016 189.219 26.0156C189.219 22.9167 188.561 20.5859 187.246 19.0234ZM197.754 13.6328C197.676 13.4766 197.637 13.3073 197.637 13.125C197.637 12.9297 197.754 12.6953 197.988 12.4219C198.236 12.1354 198.581 11.9922 199.023 11.9922H203.301C204.316 11.9922 205.091 12.6107 205.625 13.8477L213.184 30.6836L220.742 13.8477C221.276 12.6237 222.051 12.0052 223.066 11.9922H227.344C227.799 11.9922 228.145 12.1354 228.379 12.4219C228.613 12.6953 228.73 12.9297 228.73 13.125C228.73 13.3073 228.698 13.4766 228.633 13.6328L217.383 38.0078C216.771 39.3359 215.84 40 214.59 40H211.777C210.527 40 209.596 39.3359 208.984 38.0078L197.754 13.6328Z" fill="#C2873F"/>
</svg>
