<svg width="48" height="46" viewBox="0 0 48 46" fill="none" xmlns="http://www.w3.org/2000/svg">
<g clip-path="url(#clip0_241_2346)">
<path d="M5.04472 1.53332C6.14903 0.408878 7.42903 -0.102234 8.88472 -1.14441e-05C10.3404 0.102211 11.52 0.766655 12.4235 1.99332L17.5435 8.58665C18.0455 9.19999 18.3718 9.88998 18.5224 10.6567C18.673 11.4233 18.6479 12.1644 18.4471 12.88L16.9412 19.1667C16.7404 19.8822 16.891 20.4955 17.393 21.0067L24.32 28.06C24.822 28.5711 25.4243 28.7244 26.1271 28.52L32.3012 26.9867C33.0039 26.7822 33.7318 26.7567 34.4847 26.91C35.2377 27.0633 35.9153 27.3955 36.5177 27.9067L42.993 33.12C44.1977 34.04 44.8502 35.2411 44.9506 36.7233C45.051 38.2055 44.549 39.5089 43.4447 40.6333L40.5835 43.5467C39.4792 44.6711 38.1992 45.4122 36.7435 45.77C35.2879 46.1278 33.8573 46.0511 32.4518 45.54C24.9224 42.8822 18.3216 38.6655 12.6494 32.89C6.97727 27.1144 2.83609 20.3933 0.225896 12.7267C-0.276065 11.2955 -0.351359 9.83887 1.37091e-05 8.35665C0.351386 6.87443 1.07923 5.5711 2.18354 4.44666L5.04472 1.53332ZM35.4635 1.83999C35.7647 1.53332 36.1161 1.37999 36.5177 1.37999C36.9192 1.37999 37.2204 1.53332 37.4212 1.83999L44.4988 9.04665C44.8 9.35332 44.9506 9.7111 44.9506 10.12C44.9506 10.5289 44.8 10.8355 44.4988 11.04L37.4212 18.2467C37.2204 18.5533 36.9192 18.7067 36.5177 18.7067C36.1161 18.7067 35.7647 18.5533 35.4635 18.2467C35.1624 17.94 35.0118 17.6078 35.0118 17.25C35.0118 16.8922 35.1624 16.56 35.4635 16.2533L40.1318 11.5H26.5788C26.1773 11.5 25.851 11.3722 25.6 11.1167C25.349 10.8611 25.2235 10.5289 25.2235 10.12C25.2235 9.7111 25.349 9.35332 25.6 9.04665C25.851 8.73999 26.1773 8.58665 26.5788 8.58665H40.1318L35.4635 3.83332C35.1624 3.62888 35.0118 3.32221 35.0118 2.91332C35.0118 2.50443 35.1624 2.14666 35.4635 1.83999Z" fill="white"/>
</g>
<defs>
<clipPath id="clip0_241_2346">
<rect width="48" height="46" fill="white" transform="matrix(1 0 0 -1 0 46)"/>
</clipPath>
</defs>
</svg>
